{"accessors":{"accessor_21":{"bufferView":"bufferView_1","byteOffset":0,"byteStride":0,"componentType":5123,"count":270,"max":[33],"min":[0],"type":"SCALAR"},"accessor_23":{"bufferView":"bufferView_0","byteOffset":0,"byteStride":0,"componentType":5126,"count":55,"max":[0.1016794815659523,0.19899100065231323,0.09763608872890472],"min":[-0.03007557988166809,0.027094021439552307,-0.016853610053658485],"type":"VEC3"},"accessor_25":{"bufferView":"bufferView_0","byteOffset":660,"byteStride":0,"componentType":5126,"count":55,"max":[0.9773575067520142,0.5985969305038452,0.9981960654258728],"min":[0.05999389663338661,-0.6077160835266113,0.2028186172246933],"type":"VEC3"},"accessor_27":{"bufferView":"bufferView_0","byteOffset":1320,"byteStride":0,"componentType":5126,"count":55,"max":[0.9338780045509338,0.9722328782081604],"min":[0.05537080019712448,0.09372597932815552],"type":"VEC2"},"accessor_48":{"bufferView":"bufferView_1","byteOffset":540,"byteStride":0,"componentType":5123,"count":702,"max":[70],"min":[0],"type":"SCALAR"},"accessor_50":{"bufferView":"bufferView_0","byteOffset":1760,"byteStride":0,"componentType":5126,"count":149,"max":[0.12511388957500458,0.36508631706237793,0.12362691015005112],"min":[-0.12512262165546417,0.17936798930168152,-0.12355855107307434],"type":"VEC3"},"accessor_52":{"bufferView":"bufferView_0","byteOffset":3548,"byteStride":0,"componentType":5126,"count":149,"max":[0.9888790249824524,0.995559573173523,0.986971914768219],"min":[-0.9908978343009949,0.1263829916715622,-0.9918591380119324],"type":"VEC3"},"accessor_54":{"bufferView":"bufferView_0","byteOffset":5336,"byteStride":0,"componentType":5126,"count":149,"max":[0.9945380091667175,0.9995003938674927],"min":[0.005462059751152992,0.005461990833282471],"type":"VEC2"},"accessor_75":{"bufferView":"bufferView_1","byteOffset":1944,"byteStride":0,"componentType":5123,"count":2244,"max":[472],"min":[0],"type":"SCALAR"},"accessor_77":{"bufferView":"bufferView_0","byteOffset":6528,"byteStride":0,"componentType":5126,"count":850,"max":[0.12511388957500458,0.21078000962734222,0.12362691015005112],"min":[-0.12512262165546417,0.01530600804835558,-0.12355855107307434],"type":"VEC3"},"accessor_79":{"bufferView":"bufferView_0","byteOffset":16728,"byteStride":0,"componentType":5126,"count":850,"max":[0.9990686178207397,0.9932997226715088,0.9998791813850403],"min":[-0.9918211698532104,-1,-0.9998195171356201],"type":"VEC3"}},"animations":{},"asset":{"generator":"collada2gltf@GITDIR-NOTFOUND","premultipliedAlpha":true,"profile":{"api":"WebGL","version":"1.0.2"},"version":"1.0.1"},"bufferViews":{"bufferView_0":{"buffer":"ExportModel","byteLength":26928,"byteOffset":0,"target":34962},"bufferView_1":{"buffer":"ExportModel","byteLength":6432,"byteOffset":26928,"target":34963}},"buffers":{"ExportModel":{"type":"arraybuffer","byteLength":33360,"uri":"data:application/octet-stream;base64,"}},"images":{"material_1_effect-image":{"name":"material_1_effect-image","uri":"data:image/jpeg;base64,"},"material_effect-image":{"name":"material_effect-image","uri":"data:image/jpeg;base64,"}},"materials":{"material_1_effect":{"name":"material_1","technique":"technique0","values":{"ambient":[0.5843139886856079,0.5843139886856079,0.5843139886856079,1],"diffuse":"texture_material_1_effect-image","emission":[0,0,0,1],"shininess":12.800000190734863,"specular":[0.8980389833450317,0.8980389833450317,0.8980389833450317,1]}},"material_2_effect":{"name":"material_2","technique":"technique1","values":{"ambient":[0.5843139886856079,0.5843139886856079,0.5843139886856079,1],"diffuse":[0.5843139886856079,0.5843139886856079,0.5843139886856079,1],"emission":[0,0,0,1],"shininess":12.800000190734863,"specular":[0.8980389833450317,0.8980389833450317,0.8980389833450317,1]}},"material_effect":{"name":"material","technique":"technique0","values":{"ambient":[0.5843139886856079,0.5843139886856079,0.5843139886856079,1],"diffuse":"texture_material_effect-image","emission":[0,0,0,1],"shininess":12.800000190734863,"specular":[0.8980389833450317,0.8980389833450317,0.8980389833450317,1]}}},"meshes":{"mesh-split":{"primitives":[{"attributes":{"NORMAL":"accessor_25","POSITION":"accessor_23","TEXCOORD_0":"accessor_27"},"indices":"accessor_21","material":"material_effect","mode":4}]},"mesh-split_0":{"primitives":[{"attributes":{"NORMAL":"accessor_52","POSITION":"accessor_50","TEXCOORD_0":"accessor_54"},"indices":"accessor_48","material":"material_1_effect","mode":4}]},"mesh-split_1":{"primitives":[{"attributes":{"NORMAL":"accessor_79","POSITION":"accessor_77"},"indices":"accessor_75","material":"material_2_effect","mode":4}]}},"nodes":{"rootNode":{"children":[],"meshes":["mesh-split","mesh-split_0","mesh-split_1"],"matrix":[1,0,0,0,0,1,0,0,0,0,1,0,0,0,0,1]}},"programs":{"program_0":{"attributes":["a_normal","a_position","a_texcoord0"],"fragmentShader":"ExportModel0FS","vertexShader":"ExportModel0VS"},"program_1":{"attributes":["a_normal","a_position"],"fragmentShader":"ExportModel1FS","vertexShader":"ExportModel1VS"}},"samplers":{"sampler_0":{"magFilter":9729,"minFilter":9987,"wrapS":10497,"wrapT":10497}},"scene":"defaultScene","scenes":{"defaultScene":{"nodes":["rootNode"]}},"shaders":{"ExportModel0FS":{"type":35632,"uri":"data:text/plain;base64,"},"ExportModel0VS":{"type":35633,"uri":"data:text/plain;base64,"},"ExportModel1FS":{"type":35632,"uri":"data:text/plain;base64,"},"ExportModel1VS":{"type":35633,"uri":"data:text/plain;base64,"}},"skins":{},"techniques":{"technique0":{"attributes":{"a_normal":"normal","a_position":"position","a_texcoord0":"texcoord0"},"parameters":{"ambient":{"type":35666},"diffuse":{"type":35678},"emission":{"type":35666},"modelViewMatrix":{"semantic":"MODELVIEW","type":35676},"normal":{"semantic":"NORMAL","type":35665},"normalMatrix":{"semantic":"MODELVIEWINVERSETRANSPOSE","type":35675},"position":{"semantic":"POSITION","type":35665},"projectionMatrix":{"semantic":"PROJECTION","type":35676},"shininess":{"type":5126},"specular":{"type":35666},"texcoord0":{"semantic":"TEXCOORD_0","type":35664}},"program":"program_0","states":{"enable":[2929,2884]},"uniforms":{"u_ambient":"ambient","u_diffuse":"diffuse","u_emission":"emission","u_modelViewMatrix":"modelViewMatrix","u_normalMatrix":"normalMatrix","u_projectionMatrix":"projectionMatrix","u_shininess":"shininess","u_specular":"specular"}},"technique1":{"attributes":{"a_normal":"normal","a_position":"position"},"parameters":{"ambient":{"type":35666},"diffuse":{"type":35666},"emission":{"type":35666},"modelViewMatrix":{"semantic":"MODELVIEW","type":35676},"normal":{"semantic":"NORMAL","type":35665},"normalMatrix":{"semantic":"MODELVIEWINVERSETRANSPOSE","type":35675},"position":{"semantic":"POSITION","type":35665},"projectionMatrix":{"semantic":"PROJECTION","type":35676},"shininess":{"type":5126},"specular":{"type":35666}},"program":"program_1","states":{"enable":[2929,2884]},"uniforms":{"u_ambient":"ambient","u_diffuse":"diffuse","u_emission":"emission","u_modelViewMatrix":"modelViewMatrix","u_normalMatrix":"normalMatrix","u_projectionMatrix":"projectionMatrix","u_shininess":"shininess","u_specular":"specular"}}},"textures":{"texture_material_1_effect-image":{"format":6408,"internalFormat":6408,"sampler":"sampler_0","source":"material_1_effect-image","target":3553,"type":5121},"texture_material_effect-image":{"format":6408,"internalFormat":6408,"sampler":"sampler_0","source":"material_effect-image","target":3553,"type":5121}},"cameras":{},"extensionsUsed":[]}
