{"accessors":{"accessor_110":{"bufferView":"bufferView_1","byteOffset":0,"byteStride":0,"componentType":5123,"count":12,"max":[5],"min":[0],"type":"SCALAR"},"accessor_112":{"bufferView":"bufferView_0","byteOffset":0,"byteStride":0,"componentType":5126,"count":12,"max":[0.054422393441200256,0.277070015668869,0.09553129971027374],"min":[-0.05429650843143463,0.19381259381771088,-0.18738169968128204],"type":"VEC3"},"accessor_114":{"bufferView":"bufferView_0","byteOffset":144,"byteStride":0,"componentType":5126,"count":12,"max":[1.5204600095748901,1],"min":[-0.09016349911689758,0],"type":"VEC2"},"accessor_129":{"bufferView":"bufferView_1","byteOffset":24,"byteStride":0,"componentType":5123,"count":432,"max":[215],"min":[0],"type":"SCALAR"},"accessor_131":{"bufferView":"bufferView_0","byteOffset":240,"byteStride":0,"componentType":5126,"count":432,"max":[0.05442619323730469,0.2966499924659729,0.09695030003786087],"min":[-0.05442620813846588,0.13305872678756714,-0.292831689119339],"type":"VEC3"},"accessor_133":{"bufferView":"bufferView_0","byteOffset":5424,"byteStride":0,"componentType":5126,"count":432,"max":[2.0120298862457275,0.9995005130767822],"min":[-1.012030005455017,0.0004990100860595703],"type":"VEC2"},"accessor_15":{"bufferView":"bufferView_1","byteOffset":888,"byteStride":0,"componentType":5123,"count":534,"max":[266],"min":[0],"type":"SCALAR"},"accessor_17":{"bufferView":"bufferView_0","byteOffset":8880,"byteStride":0,"componentType":5126,"count":534,"max":[0.05442619323730469,0.2966499924659729,0.14431729912757874],"min":[-0.05442620813846588,0.01262399647384882,-0.292831689119339],"type":"VEC3"},"accessor_19":{"bufferView":"bufferView_0","byteOffset":15288,"byteStride":0,"componentType":5126,"count":534,"max":[2.0120298862457275,1.2421660423278809],"min":[-1.012030005455017,-0.24216997623443604],"type":"VEC2"},"accessor_34":{"bufferView":"bufferView_1","byteOffset":1956,"byteStride":0,"componentType":5123,"count":114,"max":[56],"min":[0],"type":"SCALAR"},"accessor_36":{"bufferView":"bufferView_0","byteOffset":19560,"byteStride":0,"componentType":5126,"count":114,"max":[0.053134892135858536,0.25217700004577637,0.29283130168914795],"min":[-0.053396210074424744,-0.02086700312793255,-0.2926676869392395],"type":"VEC3"},"accessor_38":{"bufferView":"bufferView_0","byteOffset":20928,"byteStride":0,"componentType":5126,"count":114,"max":[2.0096499919891357,0.999500572681427],"min":[-1.012030005455017,0.0004990100860595703],"type":"VEC2"},"accessor_53":{"bufferView":"bufferView_1","byteOffset":2184,"byteStride":0,"componentType":5123,"count":120,"max":[59],"min":[0],"type":"SCALAR"},"accessor_55":{"bufferView":"bufferView_0","byteOffset":21840,"byteStride":0,"componentType":5126,"count":120,"max":[0.049901992082595825,0.2508249878883362,-0.16846470534801483],"min":[-0.050230007618665695,0.12785449624061584,-0.2752186954021454],"type":"VEC3"},"accessor_57":{"bufferView":"bufferView_0","byteOffset":23280,"byteStride":0,"componentType":5126,"count":120,"max":[1.003790020942688,1.0552798509597778],"min":[-0.003794669872149825,-0.05527997016906738],"type":"VEC2"},"accessor_72":{"bufferView":"bufferView_1","byteOffset":2424,"byteStride":0,"componentType":5123,"count":84,"max":[41],"min":[0],"type":"SCALAR"},"accessor_74":{"bufferView":"bufferView_0","byteOffset":24240,"byteStride":0,"componentType":5126,"count":84,"max":[0.0466155931353569,0.23336999118328094,-0.25687769055366516],"min":[-0.0470581091940403,0.1312224268913269,-0.2746886909008026],"type":"VEC3"},"accessor_76":{"bufferView":"bufferView_0","byteOffset":25248,"byteStride":0,"componentType":5126,"count":84,"max":[0.9450950026512146,1.2091840505599976],"min":[-0.05252639949321747,0.000500023365020752],"type":"VEC2"},"accessor_93":{"bufferView":"bufferView_0","byteOffset":25920,"byteStride":0,"componentType":5126,"count":114,"max":[0.05365939438343048,0.295617014169693,0.09695030003786087],"min":[-0.05352021008729935,0.18476839363574982,-0.19024670124053955],"type":"VEC3"},"accessor_95":{"bufferView":"bufferView_0","byteOffset":27288,"byteStride":0,"componentType":5126,"count":114,"max":[3.2190499305725098,0.9929288625717163],"min":[-2.2190499305725098,0.007071018218994141],"type":"VEC2"}},"animations":{},"asset":{"generator":"collada2gltf@GITDIR-NOTFOUND","premultipliedAlpha":true,"profile":{"api":"WebGL","version":"1.0.2"},"version":"1.0.1"},"bufferViews":{"bufferView_0":{"buffer":"qingji","byteLength":28200,"byteOffset":0,"target":34962},"bufferView_1":{"buffer":"qingji","byteLength":2592,"byteOffset":28200,"target":34963}},"buffers":{"qingji":{"type":"arraybuffer","byteLength":30792,"uri":"data:application/octet-stream;base64,"}},"images":{"material_1_effect-image":{"name":"material_1_effect-image","uri":"data:image/jpeg;base64,"},"material_2_effect-image":{"name":"material_2_effect-image","uri":"data:image/jpeg;base64,"},"material_3_effect-image":{"name":"material_3_effect-image","uri":"data:image/jpeg;base64,"},"material_4_effect-image":{"name":"material_4_effect-image","uri":"data:image/jpeg;base64,"},"material_5_effect-image":{"name":"material_5_effect-image","uri":"data:image/jpeg;base64,"},"material_6_effect-image":{"name":"material_6_effect-image","uri":"data:image/jpeg;base64,"},"material_effect-image":{"name":"material_effect-image","uri":"data:image/jpeg;base64,"}},"materials":{"material_1_effect":{"name":"material_1","technique":"technique0","values":{"ambient":[0.5843139886856079,0.5843139886856079,0.5843139886856079,1],"diffuse":"texture_material_1_effect-image","emission":[0,0,0,1],"shininess":12.800000190734863,"specular":[0.8980389833450317,0.8980389833450317,0.8980389833450317,1]}},"material_2_effect":{"name":"material_2","technique":"technique0","values":{"ambient":[0.5843139886856079,0.5843139886856079,0.5843139886856079,1],"diffuse":"texture_material_2_effect-image","emission":[0,0,0,1],"shininess":12.800000190734863,"specular":[0.8980389833450317,0.8980389833450317,0.8980389833450317,1]}},"material_3_effect":{"name":"material_3","technique":"technique0","values":{"ambient":[0.5843139886856079,0.5843139886856079,0.5843139886856079,1],"diffuse":"texture_material_3_effect-image","emission":[0,0,0,1],"shininess":12.800000190734863,"specular":[0.8980389833450317,0.8980389833450317,0.8980389833450317,1]}},"material_4_effect":{"name":"material_4","technique":"technique0","values":{"ambient":[0.5843139886856079,0.5843139886856079,0.5843139886856079,1],"diffuse":"texture_material_4_effect-image","emission":[0,0,0,1],"shininess":12.800000190734863,"specular":[0.8980389833450317,0.8980389833450317,0.8980389833450317,1]}},"material_5_effect":{"name":"material_5","technique":"technique0","values":{"ambient":[0.5843139886856079,0.5843139886856079,0.5843139886856079,1],"diffuse":"texture_material_5_effect-image","emission":[0,0,0,1],"shininess":12.800000190734863,"specular":[0.8980389833450317,0.8980389833450317,0.8980389833450317,1]}},"material_6_effect":{"name":"material_6","technique":"technique0","values":{"ambient":[0.5843139886856079,0.5843139886856079,0.5843139886856079,1],"diffuse":"texture_material_6_effect-image","emission":[0,0,0,1],"shininess":12.800000190734863,"specular":[0.8980389833450317,0.8980389833450317,0.8980389833450317,1]}},"material_effect":{"name":"material","technique":"technique0","values":{"ambient":[0.5843139886856079,0.5843139886856079,0.5843139886856079,1],"diffuse":"texture_material_effect-image","emission":[0,0,0,1],"shininess":12.800000190734863,"specular":[0.8980389833450317,0.8980389833450317,0.8980389833450317,1]}}},"meshes":{"mesh-split":{"primitives":[{"attributes":{"POSITION":"accessor_17","TEXCOORD_0":"accessor_19"},"indices":"accessor_15","material":"material_effect","mode":4}]},"mesh-split_0":{"primitives":[{"attributes":{"POSITION":"accessor_36","TEXCOORD_0":"accessor_38"},"indices":"accessor_34","material":"material_1_effect","mode":4}]},"mesh-split_1":{"primitives":[{"attributes":{"POSITION":"accessor_55","TEXCOORD_0":"accessor_57"},"indices":"accessor_53","material":"material_2_effect","mode":4}]},"mesh-split_2":{"primitives":[{"attributes":{"POSITION":"accessor_74","TEXCOORD_0":"accessor_76"},"indices":"accessor_72","material":"material_3_effect","mode":4}]},"mesh-split_3":{"primitives":[{"attributes":{"POSITION":"accessor_93","TEXCOORD_0":"accessor_95"},"indices":"accessor_34","material":"material_4_effect","mode":4}]},"mesh-split_4":{"primitives":[{"attributes":{"POSITION":"accessor_112","TEXCOORD_0":"accessor_114"},"indices":"accessor_110","material":"material_5_effect","mode":4}]},"mesh-split_5":{"primitives":[{"attributes":{"POSITION":"accessor_131","TEXCOORD_0":"accessor_133"},"indices":"accessor_129","material":"material_6_effect","mode":4}]}},"nodes":{"rootNode":{"children":[],"meshes":["mesh-split","mesh-split_0","mesh-split_1","mesh-split_2","mesh-split_3","mesh-split_4","mesh-split_5"],"matrix":[1,0,0,0,0,1,0,0,0,0,1,0,0,0,0,1]}},"programs":{"program_0":{"attributes":["a_position","a_texcoord0"],"fragmentShader":"qingji0FS","vertexShader":"qingji0VS"}},"samplers":{"sampler_0":{"magFilter":9729,"minFilter":9987,"wrapS":10497,"wrapT":10497}},"scene":"defaultScene","scenes":{"defaultScene":{"nodes":["rootNode"]}},"shaders":{"qingji0FS":{"type":35632,"uri":"data:text/plain;base64,"},"qingji0VS":{"type":35633,"uri":"data:text/plain;base64,"}},"skins":{},"techniques":{"technique0":{"attributes":{"a_position":"position","a_texcoord0":"texcoord0"},"parameters":{"ambient":{"type":35666},"diffuse":{"type":35678},"emission":{"type":35666},"modelViewMatrix":{"semantic":"MODELVIEW","type":35676},"position":{"semantic":"POSITION","type":35665},"projectionMatrix":{"semantic":"PROJECTION","type":35676},"shininess":{"type":5126},"specular":{"type":35666},"texcoord0":{"semantic":"TEXCOORD_0","type":35664}},"program":"program_0","states":{"enable":[2929,2884]},"uniforms":{"u_diffuse":"diffuse","u_emission":"emission","u_modelViewMatrix":"modelViewMatrix","u_projectionMatrix":"projectionMatrix","u_shininess":"shininess"}}},"textures":{"texture_material_1_effect-image":{"format":6408,"internalFormat":6408,"sampler":"sampler_0","source":"material_1_effect-image","target":3553,"type":5121},"texture_material_2_effect-image":{"format":6408,"internalFormat":6408,"sampler":"sampler_0","source":"material_2_effect-image","target":3553,"type":5121},"texture_material_3_effect-image":{"format":6408,"internalFormat":6408,"sampler":"sampler_0","source":"material_3_effect-image","target":3553,"type":5121},"texture_material_4_effect-image":{"format":6408,"internalFormat":6408,"sampler":"sampler_0","source":"material_4_effect-image","target":3553,"type":5121},"texture_material_5_effect-image":{"format":6408,"internalFormat":6408,"sampler":"sampler_0","source":"material_5_effect-image","target":3553,"type":5121},"texture_material_6_effect-image":{"format":6408,"internalFormat":6408,"sampler":"sampler_0","source":"material_6_effect-image","target":3553,"type":5121},"texture_material_effect-image":{"format":6408,"internalFormat":6408,"sampler":"sampler_0","source":"material_effect-image","target":3553,"type":5121}},"cameras":{},"extensionsUsed":[]}
